# xmcd
#
# Track frame offsets:
#	150
#	17678
#	30935
#	43011
#
# Disc length: 737 seconds
#
# Revision: 0
# Processed by: cddbd v1.5.2PL0 Copyright (c) Steve Scherf et al.
# Submitted via: dBpowerAMP V4.0
#
DISCID=2202df04
DTITLE=PM&JJ - ikkähämäh
DYEAR=2007
DGENRE=Country
TTITLE0=Patukkamatkailija Virtanen
TTITLE1=Norsu lasipuodissa
TTITLE2=Tangon taikaa
TTITLE3=Oman käden oikeus
EXTD=
EXTT0=
EXTT1=
EXTT2=
EXTT3=
PLAYORDER=
